<?xml version="1.0" encoding="UTF-8" standalone="no"?>
<!-- Created with Inkscape (http://www.inkscape.org/) -->

<svg
   xmlns:dc="http://purl.org/dc/elements/1.1/"
   xmlns:cc="http://creativecommons.org/ns#"
   xmlns:rdf="http://www.w3.org/1999/02/22-rdf-syntax-ns#"
   xmlns:svg="http://www.w3.org/2000/svg"
   xmlns="http://www.w3.org/2000/svg"
   xmlns:sodipodi="http://sodipodi.sourceforge.net/DTD/sodipodi-0.dtd"
   xmlns:inkscape="http://www.inkscape.org/namespaces/inkscape"
   version="1.1"
   id="svg815"
   width="61.935486"
   height="74.322578"
   viewBox="0 0 61.935486 74.322578"
   sodipodi:docname="update_privilegs.svg"
   inkscape:version="0.92.3 (2405546, 2018-03-11)"
   inkscape:export-filename="C:\Utils\Python\Codecademy\Build Python Web Apps with Flask\Build Python Web Apps with Flask Capstone Project\static\icons\update_privilegs.png"
   inkscape:export-xdpi="96"
   inkscape:export-ydpi="96">
  <metadata
     id="metadata821">
    <rdf:RDF>
      <cc:Work
         rdf:about="">
        <dc:format>image/svg+xml</dc:format>
        <dc:type
           rdf:resource="http://purl.org/dc/dcmitype/StillImage" />
        <dc:title></dc:title>
      </cc:Work>
    </rdf:RDF>
  </metadata>
  <defs
     id="defs819" />
  <sodipodi:namedview
     pagecolor="#ffffff"
     bordercolor="#666666"
     borderopacity="1"
     objecttolerance="10"
     gridtolerance="10"
     guidetolerance="10"
     inkscape:pageopacity="0"
     inkscape:pageshadow="2"
     inkscape:window-width="1280"
     inkscape:window-height="657"
     id="namedview817"
     showgrid="false"
     inkscape:zoom="4.6618717"
     inkscape:cx="7.4145524"
     inkscape:cy="31.656541"
     inkscape:window-x="-8"
     inkscape:window-y="-8"
     inkscape:window-maximized="1"
     inkscape:current-layer="svg815"
     inkscape:pagecheckerboard="true" />
  <g
     id="g7"
     transform="translate(0.42901223,-1.0725306)">
    <path
       style="fill:#8c8c8c;fill-opacity:1;stroke-width:1.03225803"
       d="M 23.137094,69.61622 C 16.552493,67.020424 10.061833,61.604595 6.1578882,55.448713 L 3.2224259,50.81997 V 32.561815 c 0,-18.061788 0.024979,-18.264849 2.3225808,-18.880582 1.2774194,-0.342335 3.7161291,-0.638972 5.4193553,-0.659193 3.664106,-0.0435 10.997389,-3.2091115 15.643705,-6.7530285 3.88987,-2.9669486 5.76964,-3.1660091 7.713772,-0.8168591 2.09169,2.5274491 13.327425,7.5745396 16.900589,7.5917436 1.703225,0.0082 4.141935,0.295002 5.419355,0.637337 2.297601,0.615733 2.32258,0.818794 2.32258,18.880582 V 50.81997 l -2.9582,4.664596 C 51.98286,61.828657 44.978386,67.336137 37.786093,69.810648 30.54369,72.3024 29.930312,72.294259 23.137094,69.61622 Z m 13.336933,-3.919488 c 6.538099,-2.447928 12.432118,-7.103623 15.85257,-12.521969 2.364756,-3.746015 2.508734,-4.850781 2.508734,-19.249842 V 18.649172 L 47.725767,16.817704 C 43.815507,15.810398 38.501422,13.645083 35.91669,12.005896 L 31.217178,9.0255527 23.591209,12.971818 c -4.194282,2.170445 -9.564069,4.273705 -11.932859,4.673909 l -4.3068917,0.727645 v 15.444399 c 0,17.201013 0.3779824,18.564602 6.8826627,24.829527 3.350551,3.227053 13.637471,9.04988 16.046357,9.082908 0.404509,0.0056 3.191606,-0.909517 6.193549,-2.033474 z m -15.72411,-17.075459 -2.445289,-2.602889 5.362126,-5.42957 c 4.488689,-4.545148 5.362124,-6.042815 5.362124,-9.194346 0,-9.876678 13.3929,-10.497408 14.243622,-0.660158 0.387495,4.480758 -2.488343,7.353085 -7.537631,7.528428 -4.465711,0.155078 -7.61886,2.875754 -5.830394,5.030723 1.803433,2.173004 -1.238213,4.610211 -3.456242,2.769411 -0.976398,-0.810338 -1.548387,-0.879535 -1.548387,-0.187316 0,0.603754 0.487072,1.398759 1.082383,1.766682 0.739927,0.4573 0.699938,1.129767 -0.126394,2.125437 -1.657152,1.996745 -2.285654,1.855631 -5.105918,-1.146402 z M 39.008883,32.047346 c 0.343688,-0.895636 -0.135407,-2.388724 -1.064656,-3.317972 -1.564551,-1.564552 -1.814533,-1.564552 -3.379084,0 -2.110433,2.110433 -1.141751,4.946402 1.689542,4.946402 1.171121,0 2.41051,-0.732794 2.754198,-1.62843 z"
       id="path11"
       inkscape:connector-curvature="0" />
    <path
       style="fill:#333333;fill-opacity:1;stroke-width:1.03225803"
       d="M 25.209355,69.947147 C 22.257004,68.927019 17.902974,66.749007 15.533731,65.107121 10.857553,61.866529 4.5189179,54.209848 3.6756914,50.78334 3.3860683,49.606437 3.2817304,40.984908 3.4438295,31.624386 3.7227543,15.517678 3.8492371,14.587869 5.8030712,14.280965 15.362565,12.779385 19.358259,11.405895 24.865206,7.7284974 l 6.182223,-4.1283301 3.377821,2.5288449 c 5.443847,4.0755978 9.872849,5.9600118 17.171308,7.3059018 l 6.851676,1.2635 0.295094,16.456422 c 0.162302,9.051033 0.0641,17.394871 -0.218212,18.541863 -0.978,3.973374 -6.737001,11.464477 -11.373355,14.794055 -3.416771,2.453738 -15.307384,7.753826 -16.478031,7.344869 -0.05306,-0.01854 -2.512024,-0.868348 -5.464375,-1.888476 z m 11.414221,-3.864765 c 5.509939,-1.877425 15.25635,-10.215334 17.07594,-14.608211 0.771265,-1.862 1.092111,-8.342312 0.906677,-18.312686 L 54.319202,17.730571 49.95244,16.986279 C 44.924706,16.129329 37.482959,13.013547 33.228618,9.9841891 30.679953,8.1693792 30.128198,8.0931131 29.039325,9.4051252 27.05745,11.793137 16.76648,16.280808 11.5709,17.02273 L 6.8353293,17.698964 6.5489871,33.032297 c -0.2756908,14.762958 -0.1900477,15.497647 2.3023353,19.750576 3.1859636,5.436434 7.7376516,9.368699 14.5001366,12.526863 6.147057,2.870752 6.973343,2.918854 13.272117,0.772646 z M 20.749917,48.621273 18.304628,46.018384 23.911461,40.341027 c 4.48848,-4.544936 5.546403,-6.253461 5.303869,-8.565648 -0.448743,-4.278083 2.785987,-7.736988 7.120302,-7.613754 6.084622,0.173 9.074395,6.299986 5.53794,11.348983 -1.235756,1.764287 -2.629383,2.2942 -6.033561,2.2942 -5.409652,0 -8.990954,2.92385 -6.308317,5.15024 2.388008,1.981871 0.06574,4.512642 -2.608416,2.842608 -2.394342,-1.495292 -3.795589,-0.321716 -2.081663,1.743439 1.237026,1.490525 0.728035,3.683067 -0.855011,3.683067 -0.43527,0 -1.89178,-1.1713 -3.236687,-2.602889 z M 38.151451,33.801295 c 0.759351,-0.481318 1.223867,-1.983883 1.032258,-3.339032 -0.261165,-1.847094 -0.994415,-2.463907 -2.929024,-2.463907 -1.934608,0 -2.667859,0.616813 -2.929024,2.463907 -0.297862,2.10663 1.166961,4.214157 2.929024,4.214157 0.283871,0 1.137415,-0.393806 1.896766,-0.875125 z"
       id="path9"
       inkscape:connector-curvature="0" />
  </g>
</svg>
